# xmcd
#
# Track frame offsets:
#	150
#	15342
#	34071
#	50719
#	71507
#	88047
#	106215
#	124678
#	143809
#	159012
#	176374
#	191752
#	211720
#	228845
#	242124
#	256588
#	271093
#	289624
#	307056
#	324290
#	341879
#
# Disc length: 4782 seconds
#
# Revision: 0
# Processed by: cddbd v1.5.2PL0 Copyright (c) Steve Scherf et al.
# Submitted via: EZCDAudioConverter 2.4.0.1
#
DISCID=1812ac15
DTITLE=Various Artist - Sertanejos Românticos - Volume 007
DYEAR=2007
DGENRE=Sertanejo
TTITLE0=Daniel - A Primeira Letra
TTITLE1=Wilson and Soraia - Simplesmente Me Aceite
TTITLE2=Bruno and Marrone - Pra Não Morrer de Amor
TTITLE3=Daniel - Declaração De Amor
TTITLE4=Matogrosso and Mathias - Eu Me Perdi (I Miss You)
TTITLE5=Rick and Renner - Credencial
TTITLE6=Zezé Di Camargo and Luciano - Dois Corações e Uma História
TTITLE7=Sula Miranda - Caminhoneiro Do Amor
TTITLE8=Chitãozinho and Xororó - Alô
TTITLE9=Bruno and Marrone - Inevitável
TTITLE10=Daniel - Tem Alguém No Seu Lugar
TTITLE11=Leonardo - Mentira Que Virou Paixão
TTITLE12=Milionário and José Rico - Solidão
TTITLE13=Maurício and Mauri - Sempre Seu Homem
TTITLE14=Chrystian and Ralf - Chora Peito
TTITLE15=Chico Rey and Paraná - Leão Domado
TTITLE16=João Paulo and Daniel - Ela Tem O Dom De Me Fazer Chorar
TTITLE17=Chitãozinho and Xororó - Eu Menti
TTITLE18=Nathalia Siqueira - Voce Me Ensinou o Amor
TTITLE19=Bruno and Marrone - Mariane (Ao Vivo)
TTITLE20=Dalvan - Te Amo, Te Amo, Te Amo
EXTD=
EXTT0=
EXTT1=
EXTT2=
EXTT3=
EXTT4=
EXTT5=
EXTT6=
EXTT7=
EXTT8=
EXTT9=
EXTT10=
EXTT11=
EXTT12=
EXTT13=
EXTT14=
EXTT15=
EXTT16=
EXTT17=
EXTT18=
EXTT19=
EXTT20=
PLAYORDER=
